# ProBuilder 5.0.7
# https://unity3d.com/unity/features/worldbuilding/probuilder
# 7/25/2023 7:17:12 AM

mtllib ./CanBody.mtl
o CanBody

g CanBody
v 0.4755286 -1 -0.1545086
v 0.4755286 1 -0.1545086
v 0.4045088 1 -0.2938928
v 0.4045088 -1 -0.2938928
v 0.2938928 1 -0.4045087
v 0.2938928 -1 -0.4045087
v 0.1545086 1 -0.4755285
v 0.1545086 -1 -0.4755285
v 0 1 -0.5000002
v 0 -1 -0.5000002
v -0.1545086 1 -0.4755285
v -0.1545086 -1 -0.4755285
v -0.2938927 1 -0.4045087
v -0.2938927 -1 -0.4045087
v -0.4045086 1 -0.2938927
v -0.4045086 -1 -0.2938927
v -0.4755284 1 -0.1545085
v -0.4755284 -1 -0.1545085
v -0.5000001 1 0
v -0.5000001 -1 0
v -0.4755284 1 0.1545085
v -0.4755284 -1 0.1545085
v -0.4045086 1 0.2938927
v -0.4045086 -1 0.2938927
v -0.2938927 1 0.4045086
v -0.2938927 -1 0.4045086
v -0.1545085 1 0.4755283
v -0.1545085 -1 0.4755283
v -1.490116E-08 1 0.5000001
v -1.490116E-08 -1 0.5000001
v 0.1545085 1 0.4755283
v 0.1545085 -1 0.4755283
v 0.2938926 1 0.4045085
v 0.2938926 -1 0.4045085
v 0.4045085 1 0.2938927
v 0.4045085 -1 0.2938927
v 0.4755283 1 0.1545085
v 0.4755283 -1 0.1545085
v 0.5 1 0
v 0.5 -1 0
v 0 1 0
v 0 -1 0

vt 0.5201136 0
vt 0.5201136 0.6536212
vt 0.556264 0.6536212
vt 0.556264 0
vt 0.5619036 0
vt 0.5619036 0.6536212
vt 0.5919538 0.6536212
vt 0.5919538 0
vt 0.6333144 0.6536212
vt 0.6333144 0
vt 0.6819366 0.6536212
vt 0.6819366 0
vt 0.7330611 0.6536212
vt 0.7330611 0
vt 0.7816834 0.6536212
vt 0.7816834 0
vt 0.8230439 0.6536212
vt 0.8230439 0
vt 0.8530941 0.6536212
vt 0.8530941 0
vt 0 0
vt 0 0.6536212
vt 0.03005014 0.6536212
vt 0.03005014 0
vt 0.07141073 0.6536212
vt 0.07141073 0
vt 0.1200329 0.6536212
vt 0.1200329 0
vt 0.1711574 0.6536212
vt 0.1711574 0
vt 0.2197796 0.6536212
vt 0.2197796 0
vt 0.2611402 0.6536212
vt 0.2611402 0
vt 0.2911904 0.6536212
vt 0.2911904 0
vt 0.2918686 0
vt 0.2918686 0.6536212
vt 0.3280191 0.6536212
vt 0.3280191 0
vt 0.3735713 0.6536212
vt 0.3735713 0
vt 0.4240663 0.6536212
vt 0.4240663 0
vt 0.4745613 0.6536212
vt 0.4745613 0
vt 0.3599485 0.8870897
vt 0.5153562 0.8365947
vt 0.3519509 0.8365947
vt 0.3831585 0.9326419
vt 0.3599483 0.7860996
vt 0.419309 0.9687923
vt 0.3831584 0.7405475
vt 0.4648611 0.9920023
vt 0.4193089 0.704397
vt 0.5153562 1
vt 0.4648611 0.6811869
vt 0.5658512 0.9920023
vt 0.5153562 0.6731893
vt 0.6114033 0.9687923
vt 0.5658512 0.6811869
vt 0.6475539 0.9326419
vt 0.6114033 0.704397
vt 0.6707639 0.8870897
vt 0.6475539 0.7405475
vt 0.6787615 0.8365947
vt 0.6707639 0.7860997
vt 0.3308047 0.822689
vt 0.1673994 0.822689
vt 0.3228071 0.873184
vt 0.3228072 0.772194
vt 0.2995971 0.9187362
vt 0.2995972 0.7266417
vt 0.2634466 0.9548867
vt 0.2634466 0.6904913
vt 0.2178944 0.9780967
vt 0.2178945 0.6672813
vt 0.1673994 0.9860942
vt 0.1673994 0.6592836
vt 0.1169044 0.9780967
vt 0.1169044 0.6672813
vt 0.07135215 0.9548867
vt 0.07135215 0.6904913
vt 0.03520177 0.9187362
vt 0.03520169 0.7266417
vt 0.01199175 0.873184
vt 0.01199175 0.772194
vt 0.003994111 0.822689

vn 0.9510568 0 -0.309016
vn 0.809017 0 -0.5877853
vn 0.5877851 0 -0.8090171
vn 0.3090168 0 -0.9510565
vn -9.806488E-08 0 -1
vn -0.3090171 0 -0.9510564
vn -0.5877855 0 -0.8090168
vn -0.8090171 0 -0.5877851
vn -0.9510565 0 -0.3090169
vn -1 0 0
vn -0.9510565 0 0.309017
vn -0.8090169 0 0.5877854
vn -0.5877852 0 0.8090171
vn -0.3090169 0 0.9510565
vn 9.806489E-08 0 1
vn 0.3090171 0 0.9510565
vn 0.5877852 0 0.809017
vn 0.809017 0 0.5877852
vn 0.9510565 0 0.3090169
vn 1 0 9.806487E-07
vn 0 1 0
vn 0 -1 0

usemtl CanMaterial
f 9/59/21 41/48/21 7/57/21
f 19/66/21 41/48/21 17/67/21
f 8/77/22 42/69/22 10/79/22
f 26/82/22 42/69/22 28/80/22
f 14/83/22 42/69/22 16/85/22
f 20/88/22 42/69/22 22/86/22
f 3/3/2 2/2/1 1/1/1
f 1/1/1 4/4/2 3/3/2
f 5/7/3 3/6/2 4/5/2
f 4/5/2 6/8/3 5/7/3
f 7/9/4 5/7/3 6/8/3
f 6/8/3 8/10/4 7/9/4
f 9/11/5 7/9/4 8/10/4
f 8/10/4 10/12/5 9/11/5
f 11/13/6 9/11/5 10/12/5
f 10/12/5 12/14/6 11/13/6
f 13/15/7 11/13/6 12/14/6
f 12/14/6 14/16/7 13/15/7
f 15/17/8 13/15/7 14/16/7
f 14/16/7 16/18/8 15/17/8
f 17/19/9 15/17/8 16/18/8
f 16/18/8 18/20/9 17/19/9
f 19/23/10 17/22/9 18/21/9
f 18/21/9 20/24/10 19/23/10
f 21/25/11 19/23/10 20/24/10
f 20/24/10 22/26/11 21/25/11
f 23/27/12 21/25/11 22/26/11
f 22/26/11 24/28/12 23/27/12
f 25/29/13 23/27/12 24/28/12
f 24/28/12 26/30/13 25/29/13
f 27/31/14 25/29/13 26/30/13
f 26/30/13 28/32/14 27/31/14
f 29/33/15 27/31/14 28/32/14
f 28/32/14 30/34/15 29/33/15
f 31/35/16 29/33/15 30/34/15
f 30/34/15 32/36/16 31/35/16
f 33/39/17 31/38/16 32/37/16
f 32/37/16 34/40/17 33/39/17
f 35/41/18 33/39/17 34/40/17
f 34/40/17 36/42/18 35/41/18
f 37/43/19 35/41/18 36/42/18
f 36/42/18 38/44/19 37/43/19
f 39/45/20 37/43/19 38/44/19
f 38/44/19 40/46/20 39/45/20
f 2/2/1 39/45/20 40/46/20
f 40/46/20 1/1/1 2/2/1
f 37/47/21 39/49/21 41/48/21
f 41/48/21 35/50/21 37/47/21
f 3/53/21 41/48/21 39/49/21
f 39/49/21 2/51/21 3/53/21
f 33/52/21 35/50/21 41/48/21
f 41/48/21 31/54/21 33/52/21
f 7/57/21 41/48/21 3/53/21
f 3/53/21 5/55/21 7/57/21
f 29/56/21 31/54/21 41/48/21
f 41/48/21 27/58/21 29/56/21
f 25/60/21 27/58/21 41/48/21
f 41/48/21 23/62/21 25/60/21
f 13/63/21 41/48/21 9/59/21
f 9/59/21 11/61/21 13/63/21
f 21/64/21 23/62/21 41/48/21
f 41/48/21 19/66/21 21/64/21
f 17/67/21 41/48/21 13/63/21
f 13/63/21 15/65/21 17/67/21
f 36/72/22 42/69/22 40/68/22
f 40/68/22 38/70/22 36/72/22
f 1/71/22 40/68/22 42/69/22
f 42/69/22 4/73/22 1/71/22
f 32/76/22 42/69/22 36/72/22
f 36/72/22 34/74/22 32/76/22
f 6/75/22 4/73/22 42/69/22
f 42/69/22 8/77/22 6/75/22
f 28/80/22 42/69/22 32/76/22
f 32/76/22 30/78/22 28/80/22
f 12/81/22 10/79/22 42/69/22
f 42/69/22 14/83/22 12/81/22
f 22/86/22 42/69/22 26/82/22
f 26/82/22 24/84/22 22/86/22
f 18/87/22 16/85/22 42/69/22
f 42/69/22 20/88/22 18/87/22

