# ProBuilder 5.0.7
# https://unity3d.com/unity/features/worldbuilding/probuilder
# 7/25/2023 7:17:23 AM

mtllib ./CanLid.mtl
o CanLid

g CanLid
v 0.4755286 -1 -0.1545086
v 0.4755286 1 -0.1545086
v 0.4045088 1 -0.2938928
v 0.4045088 -1 -0.2938928
v 0.2938928 1 -0.4045087
v 0.2938928 -1 -0.4045087
v 0.1545086 1 -0.4755285
v 0.1545086 -1 -0.4755285
v 0 1 -0.5000002
v 0 -1 -0.5000002
v -0.1545086 1 -0.4755285
v -0.1545086 -1 -0.4755285
v -0.2938927 1 -0.4045087
v -0.2938927 -1 -0.4045087
v -0.4045086 1 -0.2938927
v -0.4045086 -1 -0.2938927
v -0.4755284 1 -0.1545085
v -0.4755284 -1 -0.1545085
v -0.5000012 5.993518 1.087066E-06
v -0.5000012 4.727763 -3.04015E-06
v -0.4755299 5.993511 0.1545091
v -0.4755299 4.727756 0.154505
v -0.404513 5.993497 0.2938941
v -0.404513 4.727742 0.29389
v -0.2938931 5.993596 0.4045093
v -0.2938931 4.727754 0.4045045
v -0.1545104 5.993489 0.4755303
v -0.1545104 4.727734 0.4755262
v -2.385277E-06 5.993602 0.5000008
v -2.385277E-06 4.72776 0.499996
v 0.1545056 5.993489 0.4755303
v 0.1545056 4.727734 0.4755262
v 0.2938883 5.993596 0.4045093
v 0.2938883 4.727754 0.4045045
v 0.4045082 5.993497 0.2938941
v 0.4045082 4.727742 0.29389
v 0.4755251 5.993511 0.1545091
v 0.4755251 4.727756 0.154505
v 0.4999964 5.993518 1.087066E-06
v 0.4999964 4.727763 -3.04015E-06
v -2.385277E-06 5.993518 1.087066E-06
v -2.385277E-06 4.727763 -3.04015E-06

vt 0.3323405 0.1795479
vt 0.3323405 0.8264343
vt 0.3402557 0.8264343
vt 0.3402557 0.1795479
vt 0.3632266 0.8264343
vt 0.3632266 0.1795479
vt 0.3990046 0.8264343
vt 0.3990046 0.1795479
vt 0.4440875 0.8264343
vt 0.4440875 0.1795479
vt 0.4940622 0.8264343
vt 0.4940622 0.1795479
vt 0.5440369 0.8264343
vt 0.5440369 0.1795479
vt 0.5891198 0.8264343
vt 0.5891198 0.1795479
vt 0.6248978 0.8264343
vt 0.6248978 0.1795479
vt 0.6478686 0.8264343
vt 0.6478686 0.1795479
vt 0.6557839 0.8264343
vt 0.6557839 0.1795479
vt -2.384186E-07 0.1795479
vt -2.384186E-07 0.8264343
vt 0.00791499 0.8264343
vt 0.00791499 0.1795479
vt 0.03088588 0.8264343
vt 0.03088588 0.1795479
vt 0.06666386 0.8264343
vt 0.06666386 0.1795479
vt 0.1117467 0.8264343
vt 0.1117467 0.1795479
vt 0.1617214 0.8264343
vt 0.1617214 0.1795479
vt 0.2116961 0.8264343
vt 0.2116961 0.1795479
vt 0.256779 0.8264343
vt 0.256779 0.1795479
vt 0.292557 0.8264343
vt 0.292557 0.1795479
vt 0.3155278 0.8264343
vt 0.3155278 0.1795479
vt 0.3234431 0.8264343
vt 0.3234431 0.1795479
vt 0.6844717 0.725167
vt 0.8382781 0.6751924
vt 0.6765565 0.6751924
vt 0.7074426 0.7702498
vt 0.6844716 0.6252176
vt 0.7432205 0.8060279
vt 0.7074425 0.5801346
vt 0.7883034 0.8289987
vt 0.7432204 0.5443567
vt 0.8382781 0.8369138
vt 0.7883033 0.5213858
vt 0.8882529 0.8289987
vt 0.8382781 0.5134706
vt 0.9333357 0.8060279
vt 0.8882529 0.5213858
vt 0.9691136 0.7702498
vt 0.9333357 0.5443567
vt 0.9920846 0.725167
vt 0.9691136 0.5801347
vt 0.9999998 0.6751924
vt 0.9920846 0.6252176
vt 0.9999996 0.3412696
vt 0.8382781 0.3412696
vt 0.9920844 0.3912443
vt 0.9920846 0.2912948
vt 0.9691136 0.4363271
vt 0.9691137 0.2462119
vt 0.9333357 0.4721051
vt 0.9333357 0.210434
vt 0.8882527 0.4950759
vt 0.8882529 0.1874631
vt 0.8382781 0.5029911
vt 0.8382781 0.1795479
vt 0.7883033 0.495076
vt 0.7883033 0.1874631
vt 0.7432204 0.4721051
vt 0.7432204 0.210434
vt 0.7074425 0.4363271
vt 0.7074425 0.2462119
vt 0.6844716 0.3912443
vt 0.6844716 0.2912948
vt 0.6765564 0.3412696

vn 0.9510599 0 -0.3090067
vn 0.809017 0 -0.5877853
vn 0.5877851 0 -0.8090171
vn 0.3090168 0 -0.9510565
vn -9.806488E-08 0 -1
vn -0.3090171 0 -0.9510564
vn -0.5877855 0 -0.8090168
vn -0.8090171 0 -0.5877851
vn -0.9510557 0 -0.3090196
vn -1 -1.290704E-07 -9.715978E-06
vn -0.9510598 -1.007658E-06 0.309007
vn -0.8090162 -1.922336E-06 0.5877864
vn -0.5877807 -2.959093E-06 0.8090203
vn -0.3090197 -3.224037E-06 0.9510556
vn 1.040995E-06 -3.661066E-06 1
vn 0.3090179 -3.242019E-06 0.9510562
vn 0.587782 -2.936088E-06 0.8090194
vn 0.8090158 -2.012142E-06 0.587787
vn 0.9510598 -1.009023E-06 0.309007
vn 1 -3.67469E-11 3.492615E-06
vn -6.945634E-06 1 7.075512E-05
vn 0.01046717 0.7381724 -0.674531
vn 0 0.7179751 -0.6960687
vn 0.000197069 0.9999999 -0.0001982314
vn 0.5198505 0.07583328 -0.8508847
vn 0.8049915 0.09963216 -0.5848607
vn 0.5848605 0.0996321 -0.8049917
vn 0.3074793 0.09963199 -0.9463245
vn -9.805298E-08 0.09963185 -0.9950243
vn -0.3074796 0.0996317 -0.9463243
vn -0.5848609 0.09963153 -0.8049915
vn -0.8049918 0.09963137 -0.5848606
vn -0.5198506 0.07583277 -0.8508847
vn 0 -0.7165941 0.6974903
vn 0.03388903 -0.7977679 0.6020115
vn 6.945634E-06 -1 -7.075512E-05
vn -0.5204825 -0.06617536 0.8513042
vn -0.805952 -0.08696348 0.5855585
vn -0.5855583 -0.08696327 0.8059521
vn -0.3078461 -0.08696308 0.9474536
vn 8.29703E-08 -0.08696291 0.9962115
vn 0.3078464 -0.0869628 0.9474534
vn 0.5855587 -0.08696276 0.805952
vn 0.8059522 -0.08696278 0.5855583
vn 0.5204825 -0.0661749 0.8513042

usemtl CanLid
f 9/57/29 41/46/22 7/55/28
f 19/64/23 41/46/22 17/65/33
f 8/75/40 42/67/35 10/77/41
f 26/80/36 42/67/35 28/78/36
f 14/81/43 42/67/35 16/83/44
f 20/86/34 42/67/35 22/84/36
f 3/3/2 2/2/1 1/1/1
f 1/1/1 4/4/2 3/3/2
f 5/5/3 3/3/2 4/4/2
f 4/4/2 6/6/3 5/5/3
f 7/7/4 5/5/3 6/6/3
f 6/6/3 8/8/4 7/7/4
f 9/9/5 7/7/4 8/8/4
f 8/8/4 10/10/5 9/9/5
f 11/11/6 9/9/5 10/10/5
f 10/10/5 12/12/6 11/11/6
f 13/13/7 11/11/6 12/12/6
f 12/12/6 14/14/7 13/13/7
f 15/15/8 13/13/7 14/14/7
f 14/14/7 16/16/8 15/15/8
f 17/17/9 15/15/8 16/16/8
f 16/16/8 18/18/9 17/17/9
f 19/19/10 17/17/9 18/18/9
f 18/18/9 20/20/10 19/19/10
f 21/21/11 19/19/10 20/20/10
f 20/20/10 22/22/11 21/21/11
f 23/25/12 21/24/11 22/23/11
f 22/23/11 24/26/12 23/25/12
f 25/27/13 23/25/12 24/26/12
f 24/26/12 26/28/13 25/27/13
f 27/29/14 25/27/13 26/28/13
f 26/28/13 28/30/14 27/29/14
f 29/31/15 27/29/14 28/30/14
f 28/30/14 30/32/15 29/31/15
f 31/33/16 29/31/15 30/32/15
f 30/32/15 32/34/16 31/33/16
f 33/35/17 31/33/16 32/34/16
f 32/34/16 34/36/17 33/35/17
f 35/37/18 33/35/17 34/36/17
f 34/36/17 36/38/18 35/37/18
f 37/39/19 35/37/18 36/38/18
f 36/38/18 38/40/19 37/39/19
f 39/41/20 37/39/19 38/40/19
f 38/40/19 40/42/20 39/41/20
f 2/43/1 39/41/20 40/42/20
f 40/42/20 1/44/1 2/43/1
f 37/45/21 39/47/23 41/46/22
f 41/46/22 35/48/24 37/45/21
f 3/51/26 41/46/22 39/47/23
f 39/47/23 2/49/25 3/51/26
f 33/50/21 35/48/24 41/46/22
f 41/46/22 31/52/21 33/50/21
f 7/55/28 41/46/22 3/51/26
f 3/51/26 5/53/27 7/55/28
f 29/54/21 31/52/21 41/46/22
f 41/46/22 27/56/21 29/54/21
f 25/58/21 27/56/21 41/46/22
f 41/46/22 23/60/24 25/58/21
f 13/61/31 41/46/22 9/57/29
f 9/57/29 11/59/30 13/61/31
f 21/62/21 23/60/24 41/46/22
f 41/46/22 19/64/23 21/62/21
f 17/65/33 41/46/22 13/61/31
f 13/61/31 15/63/32 17/65/33
f 36/70/36 42/67/35 40/66/34
f 40/66/34 38/68/36 36/70/36
f 1/69/37 40/66/34 42/67/35
f 42/67/35 4/71/38 1/69/37
f 32/74/36 42/67/35 36/70/36
f 36/70/36 34/72/36 32/74/36
f 6/73/39 4/71/38 42/67/35
f 42/67/35 8/75/40 6/73/39
f 28/78/36 42/67/35 32/74/36
f 32/74/36 30/76/36 28/78/36
f 12/79/42 10/77/41 42/67/35
f 42/67/35 14/81/43 12/79/42
f 22/84/36 42/67/35 26/80/36
f 26/80/36 24/82/36 22/84/36
f 18/85/45 16/83/44 42/67/35
f 42/67/35 20/86/34 18/85/45

